<?xml version="1.0" encoding="utf-8"?>
<!-- Generator: Adobe Illustrator 25.2.3, SVG Export Plug-In . SVG Version: 6.00 Build 0)  -->
<!DOCTYPE svg PUBLIC "-//W3C//DTD SVG 1.1//EN" "http://www.w3.org/Graphics/SVG/1.1/DTD/svg11.dtd" [
	<!ENTITY ns_extend "http://ns.adobe.com/Extensibility/1.0/">
	<!ENTITY ns_ai "http://ns.adobe.com/AdobeIllustrator/10.0/">
	<!ENTITY ns_graphs "http://ns.adobe.com/Graphs/1.0/">
	<!ENTITY ns_vars "http://ns.adobe.com/Variables/1.0/">
	<!ENTITY ns_imrep "http://ns.adobe.com/ImageReplacement/1.0/">
	<!ENTITY ns_sfw "http://ns.adobe.com/SaveForWeb/1.0/">
	<!ENTITY ns_custom "http://ns.adobe.com/GenericCustomNamespace/1.0/">
	<!ENTITY ns_adobe_xpath "http://ns.adobe.com/XPath/1.0/">
]>
<svg version="1.1"
	 id="Vrstva_1" xmlns:x="&ns_extend;" xmlns:i="&ns_ai;" xmlns:graph="&ns_graphs;" xmlns:figma="http://www.figma.com/figma/ns"
	 xmlns="http://www.w3.org/2000/svg" xmlns:xlink="http://www.w3.org/1999/xlink" x="0px" y="0px" width="209px" height="24px"
	 viewBox="0 0 209 24" style="enable-background:new 0 0 209 24;" xml:space="preserve">
<style type="text/css">
	.st0{fill:#DBBF19;}
</style>
<metadata>
	<sfw  xmlns="&ns_sfw;">
		<slices></slices>
		<sliceSourceBounds  bottomLeftOrigin="true" height="23.7" width="178.5" x="10.3" y="0"></sliceSourceBounds>
	</sfw>
</metadata>
<g>
	<path d="M39.8,16.8v-10h7.2V8h-5.9v3.1h5.5v1.2h-5.5v3.4h6.2v1.2H39.8z"/>
	<path d="M48.7,13.6l1.3-0.1c0.1,0.5,0.2,0.9,0.4,1.2c0.2,0.3,0.6,0.6,1,0.8s1,0.3,1.5,0.3c0.5,0,1-0.1,1.3-0.2s0.7-0.4,0.9-0.6
		c0.2-0.3,0.3-0.5,0.3-0.9c0-0.3-0.1-0.6-0.3-0.8c-0.2-0.2-0.5-0.4-0.9-0.6c-0.3-0.1-0.9-0.3-1.8-0.5s-1.6-0.4-1.9-0.6
		c-0.5-0.3-0.8-0.6-1.1-0.9c-0.2-0.4-0.4-0.8-0.4-1.2c0-0.5,0.1-1,0.4-1.4s0.7-0.8,1.3-1s1.2-0.3,1.8-0.3c0.7,0,1.4,0.1,2,0.4
		c0.6,0.2,1,0.6,1.3,1.1s0.5,1,0.5,1.6l-1.3,0.1c-0.1-0.6-0.3-1.1-0.7-1.4c-0.4-0.3-1-0.5-1.7-0.5c-0.8,0-1.4,0.1-1.8,0.4
		c-0.4,0.3-0.5,0.6-0.5,1.1c0,0.4,0.1,0.7,0.4,0.9c0.3,0.2,0.9,0.5,2,0.7c1.1,0.2,1.8,0.5,2.2,0.6c0.6,0.3,1,0.6,1.3,1
		c0.3,0.4,0.4,0.9,0.4,1.4c0,0.5-0.2,1-0.5,1.5s-0.7,0.8-1.3,1.1C54.3,16.9,53.7,17,53,17c-0.9,0-1.7-0.1-2.3-0.4
		c-0.6-0.3-1.1-0.7-1.4-1.2C48.9,14.9,48.7,14.3,48.7,13.6z"/>
	<path d="M58.5,16.8v-10h3.8c0.7,0,1.2,0,1.5,0.1C64.3,7,64.7,7.2,65,7.4s0.6,0.6,0.8,1c0.2,0.4,0.3,0.9,0.3,1.4
		c0,0.9-0.3,1.6-0.8,2.2s-1.5,0.9-2.9,0.9h-2.6v4.1H58.5z M59.8,11.6h2.6c0.9,0,1.5-0.2,1.8-0.5s0.5-0.8,0.5-1.3
		c0-0.4-0.1-0.8-0.3-1.1c-0.2-0.3-0.5-0.5-0.8-0.6C63.4,8,63,8,62.4,8h-2.6V11.6z"/>
	<path d="M67.4,12c0-1.7,0.4-3,1.3-3.9s2-1.4,3.5-1.4c0.9,0,1.8,0.2,2.5,0.7s1.3,1.1,1.7,1.8c0.4,0.8,0.6,1.7,0.6,2.7
		c0,1-0.2,1.9-0.6,2.7c-0.4,0.8-1,1.4-1.7,1.8c-0.8,0.4-1.6,0.6-2.4,0.6c-0.9,0-1.8-0.2-2.5-0.7c-0.7-0.5-1.3-1.1-1.7-1.9
		C67.6,13.7,67.4,12.8,67.4,12z M68.8,12c0,1.2,0.3,2.2,1,2.9c0.7,0.7,1.5,1,2.4,1c1,0,1.8-0.4,2.5-1.1c0.6-0.7,1-1.7,1-3
		c0-0.8-0.1-1.5-0.4-2.1C75,9.1,74.6,8.6,74,8.3c-0.5-0.3-1.1-0.5-1.8-0.5c-0.9,0-1.7,0.3-2.4,1C69.1,9.4,68.8,10.5,68.8,12z"/>
	<path d="M78.7,16.8v-10h4.4c0.9,0,1.6,0.1,2,0.3s0.8,0.5,1.1,1s0.4,1,0.4,1.5c0,0.7-0.2,1.3-0.7,1.8s-1.2,0.8-2.1,0.9
		c0.4,0.2,0.6,0.3,0.8,0.5c0.4,0.4,0.8,0.8,1.1,1.3l1.7,2.7h-1.7l-1.3-2.1c-0.4-0.6-0.7-1.1-1-1.4c-0.3-0.3-0.5-0.5-0.7-0.7
		c-0.2-0.1-0.4-0.2-0.6-0.3c-0.2,0-0.4,0-0.7,0h-1.5v4.5H78.7z M80.1,11.2h2.9c0.6,0,1.1-0.1,1.4-0.2s0.6-0.3,0.8-0.6
		s0.3-0.6,0.3-0.9c0-0.5-0.2-0.9-0.5-1.2c-0.3-0.3-0.9-0.5-1.6-0.5h-3.2V11.2z"/>
	<path d="M91.1,16.8V8h-3.3V6.8h7.9V8h-3.3v8.8H91.1z"/>
	<path d="M96.7,13.6l1.3-0.1c0.1,0.5,0.2,0.9,0.4,1.2c0.2,0.3,0.6,0.6,1,0.8s1,0.3,1.5,0.3c0.5,0,1-0.1,1.3-0.2s0.7-0.4,0.9-0.6
		c0.2-0.3,0.3-0.5,0.3-0.9c0-0.3-0.1-0.6-0.3-0.8c-0.2-0.2-0.5-0.4-0.9-0.6c-0.3-0.1-0.9-0.3-1.8-0.5s-1.6-0.4-1.9-0.6
		c-0.5-0.3-0.8-0.6-1.1-0.9c-0.2-0.4-0.4-0.8-0.4-1.2c0-0.5,0.1-1,0.4-1.4s0.7-0.8,1.3-1s1.2-0.3,1.8-0.3c0.7,0,1.4,0.1,2,0.4
		c0.6,0.2,1,0.6,1.3,1.1s0.5,1,0.5,1.6l-1.3,0.1c-0.1-0.6-0.3-1.1-0.7-1.4c-0.4-0.3-1-0.5-1.7-0.5c-0.8,0-1.4,0.1-1.8,0.4
		c-0.4,0.3-0.5,0.6-0.5,1.1c0,0.4,0.1,0.7,0.4,0.9c0.3,0.2,0.9,0.5,2,0.7c1.1,0.2,1.8,0.5,2.2,0.6c0.6,0.3,1,0.6,1.3,1
		c0.3,0.4,0.4,0.9,0.4,1.4c0,0.5-0.2,1-0.5,1.5s-0.7,0.8-1.3,1.1c-0.6,0.3-1.2,0.4-1.9,0.4c-0.9,0-1.7-0.1-2.3-0.4
		c-0.6-0.3-1.1-0.7-1.4-1.2C96.9,14.9,96.7,14.3,96.7,13.6z"/>
</g>
<g>
	<path d="M111.7,13v-2.1h4.8v4.3c-0.9,0.6-1.7,1-2.4,1.3c-0.7,0.2-1.5,0.3-2.5,0.3c-1.2,0-2.2-0.2-2.9-0.6c-0.8-0.4-1.3-1-1.7-1.8
		c-0.4-0.8-0.6-1.7-0.6-2.8c0-1.1,0.2-2,0.7-2.9s1.1-1.4,2-1.8c0.7-0.3,1.6-0.5,2.7-0.5c1.1,0,1.9,0.1,2.5,0.3s1,0.5,1.4,0.9
		c0.4,0.4,0.6,1,0.8,1.6l-3,0.5c-0.1-0.4-0.3-0.7-0.6-0.9c-0.3-0.2-0.7-0.3-1.1-0.3c-0.7,0-1.2,0.2-1.6,0.7
		c-0.4,0.5-0.6,1.2-0.6,2.2c0,1.1,0.2,1.9,0.6,2.3s1,0.7,1.7,0.7c0.3,0,0.7-0.1,1-0.2c0.3-0.1,0.7-0.3,1.1-0.5V13H111.7z"/>
	<path d="M124.4,14.9h-3.5l-0.5,1.7h-3.2l3.8-10h3.4l3.8,10H125L124.4,14.9z M123.8,12.8l-1.1-3.6l-1.1,3.6H123.8z"/>
	<path d="M129.1,6.6h4.1l1.6,6.1l1.6-6.1h4.1v10h-2.5V9l-2,7.6h-2.3l-2-7.6v7.6h-2.5V6.6z"/>
	<path d="M142.4,6.6h8.3v2.1h-5.2v1.6h4.8v2h-4.8v2h5.3v2.3h-8.4V6.6z"/>
	<path d="M152,13.3l2.9-0.2c0.1,0.5,0.2,0.8,0.4,1.1c0.3,0.4,0.8,0.6,1.4,0.6c0.4,0,0.8-0.1,1-0.3c0.2-0.2,0.4-0.4,0.4-0.7
		c0-0.3-0.1-0.5-0.3-0.7c-0.2-0.2-0.8-0.4-1.6-0.6c-1.4-0.3-2.3-0.7-2.9-1.2c-0.6-0.5-0.9-1.2-0.9-1.9c0-0.5,0.2-1,0.4-1.5
		c0.3-0.5,0.7-0.8,1.3-1.1s1.4-0.4,2.5-0.4c1.3,0,2.3,0.2,2.9,0.7c0.7,0.5,1.1,1.2,1.2,2.3l-2.9,0.2c-0.1-0.5-0.2-0.8-0.5-1
		s-0.6-0.3-1-0.3c-0.4,0-0.6,0.1-0.8,0.2c-0.2,0.2-0.3,0.3-0.3,0.6c0,0.2,0.1,0.3,0.2,0.4c0.1,0.1,0.5,0.3,1,0.4
		c1.4,0.3,2.3,0.6,2.9,0.9c0.6,0.3,1,0.7,1.3,1.1c0.3,0.4,0.4,0.9,0.4,1.5c0,0.6-0.2,1.2-0.5,1.8c-0.4,0.5-0.9,1-1.5,1.2
		c-0.6,0.3-1.4,0.4-2.4,0.4c-1.7,0-2.9-0.3-3.5-1S152,14.3,152,13.3z"/>
	<path d="M162.4,13.8h3v2.8h-3V13.8z"/>
	<path d="M172.3,13v-2.1h4.8v4.3c-0.9,0.6-1.7,1-2.4,1.3c-0.7,0.2-1.5,0.3-2.5,0.3c-1.2,0-2.2-0.2-2.9-0.6c-0.8-0.4-1.3-1-1.7-1.8
		c-0.4-0.8-0.6-1.7-0.6-2.8c0-1.1,0.2-2,0.7-2.9s1.1-1.4,2-1.8c0.7-0.3,1.6-0.5,2.7-0.5c1.1,0,1.9,0.1,2.5,0.3s1,0.5,1.4,0.9
		c0.4,0.4,0.6,1,0.8,1.6l-3,0.5c-0.1-0.4-0.3-0.7-0.6-0.9c-0.3-0.2-0.7-0.3-1.1-0.3c-0.7,0-1.2,0.2-1.6,0.7
		c-0.4,0.5-0.6,1.2-0.6,2.2c0,1.1,0.2,1.9,0.6,2.3s1,0.7,1.7,0.7c0.3,0,0.7-0.1,1-0.2c0.3-0.1,0.7-0.3,1.1-0.5V13H172.3z"/>
	<path d="M184,13v-2.1h4.8v4.3c-0.9,0.6-1.7,1-2.4,1.3c-0.7,0.2-1.5,0.3-2.5,0.3c-1.2,0-2.2-0.2-2.9-0.6c-0.8-0.4-1.3-1-1.7-1.8
		c-0.4-0.8-0.6-1.7-0.6-2.8c0-1.1,0.2-2,0.7-2.9s1.1-1.4,2-1.8c0.7-0.3,1.6-0.5,2.7-0.5c1.1,0,1.9,0.1,2.5,0.3s1,0.5,1.4,0.9
		c0.4,0.4,0.6,1,0.8,1.6l-3,0.5c-0.1-0.4-0.3-0.7-0.6-0.9c-0.3-0.2-0.7-0.3-1.1-0.3c-0.7,0-1.2,0.2-1.6,0.7
		c-0.4,0.5-0.6,1.2-0.6,2.2c0,1.1,0.2,1.9,0.6,2.3s1,0.7,1.7,0.7c0.3,0,0.7-0.1,1-0.2c0.3-0.1,0.7-0.3,1.1-0.5V13H184z"/>
</g>
<g>
	
		<rect x="13.8" y="3.8" transform="matrix(0.7071 -0.7071 0.7071 0.7071 -2.1061 19.2182)" class="st0" width="16.8" height="16.8"/>
	<g>
		<g>
			<path d="M18.1,7.8h3.4v0.9h-2.1v0.6h2v0.8h-2v0.8h2.2v0.9h-3.4V7.8z"/>
			<path d="M24.2,10.4V9.5h1.9v1.7c-0.4,0.3-0.7,0.4-1,0.5c-0.3,0.1-0.6,0.1-1,0.1c-0.5,0-0.9-0.1-1.2-0.2c-0.3-0.2-0.5-0.4-0.7-0.7
				c-0.2-0.3-0.3-0.7-0.3-1.1c0-0.4,0.1-0.8,0.3-1.2c0.2-0.3,0.5-0.6,0.8-0.7c0.3-0.1,0.6-0.2,1.1-0.2c0.4,0,0.8,0,1,0.1
				c0.2,0.1,0.4,0.2,0.6,0.4c0.1,0.2,0.3,0.4,0.3,0.6l-1.2,0.2c0-0.2-0.1-0.3-0.3-0.4c-0.1-0.1-0.3-0.1-0.5-0.1
				c-0.3,0-0.5,0.1-0.7,0.3c-0.2,0.2-0.2,0.5-0.2,0.9c0,0.4,0.1,0.8,0.2,0.9c0.2,0.2,0.4,0.3,0.7,0.3c0.1,0,0.3,0,0.4-0.1
				c0.1,0,0.3-0.1,0.4-0.2v-0.4H24.2z"/>
		</g>
		<g>
			<path d="M19.9,15.1v-0.8h1.9v1.7c-0.4,0.3-0.7,0.4-1,0.5c-0.3,0.1-0.6,0.1-1,0.1c-0.5,0-0.9-0.1-1.2-0.2
				c-0.3-0.2-0.5-0.4-0.7-0.7c-0.2-0.3-0.3-0.7-0.3-1.1c0-0.4,0.1-0.8,0.3-1.2c0.2-0.3,0.5-0.6,0.8-0.7c0.3-0.1,0.6-0.2,1.1-0.2
				c0.4,0,0.8,0,1,0.1c0.2,0.1,0.4,0.2,0.6,0.4c0.1,0.2,0.3,0.4,0.3,0.6l-1.2,0.2c0-0.2-0.1-0.3-0.3-0.4c-0.1-0.1-0.3-0.1-0.5-0.1
				c-0.3,0-0.5,0.1-0.7,0.3c-0.2,0.2-0.2,0.5-0.2,0.9c0,0.4,0.1,0.8,0.2,0.9c0.2,0.2,0.4,0.3,0.7,0.3c0.1,0,0.3,0,0.4-0.1
				c0.1,0,0.3-0.1,0.4-0.2v-0.4H19.9z"/>
			<path d="M23.5,15.1v0.4c0.2,0.1,0.3,0.2,0.4,0.2c0.1,0,0.3,0.1,0.4,0.1c0.3,0,0.5-0.1,0.7-0.3c0.2-0.2,0.2-0.5,0.2-0.9
				c0-0.4-0.1-0.7-0.2-0.9c-0.2-0.2-0.4-0.3-0.7-0.3c-0.2,0-0.3,0-0.5,0.1c-0.1,0.1-0.2,0.2-0.3,0.4l-1.2-0.2
				c0.1-0.3,0.2-0.5,0.3-0.6c0.1-0.2,0.3-0.3,0.6-0.4c0.2-0.1,0.6-0.1,1-0.1c0.5,0,0.8,0.1,1.1,0.2c0.4,0.2,0.6,0.4,0.8,0.7
				c0.2,0.3,0.3,0.7,0.3,1.2c0,0.4-0.1,0.8-0.3,1.1c-0.2,0.3-0.4,0.6-0.7,0.7c-0.3,0.2-0.7,0.2-1.2,0.2c-0.4,0-0.7,0-1-0.1
				c-0.3-0.1-0.6-0.3-1-0.5l0-1.7l1.9,0v0.8H23.5z"/>
		</g>
	</g>
</g>
</svg>
