<?xml version="1.0" encoding="utf-8"?>
<!-- Generator: Adobe Illustrator 25.2.3, SVG Export Plug-In . SVG Version: 6.00 Build 0)  -->
<!DOCTYPE svg PUBLIC "-//W3C//DTD SVG 1.1//EN" "http://www.w3.org/Graphics/SVG/1.1/DTD/svg11.dtd" [
	<!ENTITY ns_extend "http://ns.adobe.com/Extensibility/1.0/">
	<!ENTITY ns_ai "http://ns.adobe.com/AdobeIllustrator/10.0/">
	<!ENTITY ns_graphs "http://ns.adobe.com/Graphs/1.0/">
	<!ENTITY ns_vars "http://ns.adobe.com/Variables/1.0/">
	<!ENTITY ns_imrep "http://ns.adobe.com/ImageReplacement/1.0/">
	<!ENTITY ns_sfw "http://ns.adobe.com/SaveForWeb/1.0/">
	<!ENTITY ns_custom "http://ns.adobe.com/GenericCustomNamespace/1.0/">
	<!ENTITY ns_adobe_xpath "http://ns.adobe.com/XPath/1.0/">
]>
<svg version="1.1"
	 id="Vrstva_1" xmlns:x="&ns_extend;" xmlns:i="&ns_ai;" xmlns:graph="&ns_graphs;" xmlns:figma="http://www.figma.com/figma/ns"
	 xmlns="http://www.w3.org/2000/svg" xmlns:xlink="http://www.w3.org/1999/xlink" x="0px" y="0px" width="209px" height="24px"
	 viewBox="0 0 209 24" style="enable-background:new 0 0 209 24;" xml:space="preserve">
<style type="text/css">
	.st0{fill:#FF4400;}
	.st1{fill:none;}
	.st2{font-family:'ArialMT';}
	.st3{font-size:14px;}
	.st4{font-family:'Arial-Black';}
	.st5{fill:#DBBF19;}
</style>
<metadata>
	<sfw  xmlns="&ns_sfw;">
		<slices></slices>
		<sliceSourceBounds  bottomLeftOrigin="true" height="100.8" width="327" x="-12.9" y="-77.1"></sliceSourceBounds>
	</sfw>
</metadata>
<g transform="translate(-1470)" figma:type="canvas">
	<g transform="translate(1470)" figma:type="vector">
		<g>
			<path id="b" class="st0" d="M9.9,100.3c0.3,0.3,0.1,0.8-0.4,0.8H3.6c-0.3,0-0.6-0.1-0.7-0.3l-9.4-10.5v10.4
				c0,0.3-0.2,0.5-0.5,0.5h-5.3c-0.3,0-0.5-0.2-0.5-0.5v-23c0-0.3,0.2-0.5,0.5-0.5h5.3c0.3,0,0.5,0.2,0.5,0.5v9.8l9.1-10
				c0.2-0.2,0.5-0.3,0.7-0.3h5.8c0.4,0,0.7,0.5,0.4,0.8l-9.9,10.6L9.9,100.3L9.9,100.3z"/>
		</g>
		<g>
			<path id="c" class="st0" d="M33.1,101.1c-0.2,0-0.4-0.1-0.5-0.3l-2-4.7H20l-2,4.7c-0.1,0.2-0.3,0.3-0.5,0.3h-5.2
				c-0.4,0-0.6-0.4-0.5-0.7l10.8-23c0.1-0.2,0.3-0.3,0.5-0.3h4.4c0.2,0,0.4,0.1,0.5,0.3l10.8,23c0.2,0.3-0.1,0.7-0.5,0.7
				C38.2,101.1,33.1,101.1,33.1,101.1z M22,91.4h6.6l-3.3-7.7L22,91.4L22,91.4z"/>
		</g>
		<g>
			<path id="d" class="st0" d="M42.7,101.1c-0.3,0-0.5-0.2-0.5-0.5v-23c0-0.3,0.2-0.5,0.5-0.5H48c0.3,0,0.5,0.2,0.5,0.5V96h9.8
				c0.3,0,0.5,0.2,0.5,0.5v4.1c0,0.3-0.2,0.5-0.5,0.5H42.7z"/>
		</g>
		<g>
			<path id="e" class="st0" d="M62.4,77.6c0-0.3,0.2-0.5,0.5-0.5h9.3c2.7,0,5,0.5,6.9,1.4c1.9,1,3.4,2.3,4.4,4.2
				c1,1.8,1.5,3.9,1.5,6.4c0,2.5-0.5,4.7-1.5,6.5c-1,1.8-2.5,3.2-4.4,4.1c-1.9,1-4.2,1.4-6.9,1.4h-9.3c-0.3,0-0.5-0.2-0.5-0.5V77.6z
				 M71.8,96.1c2.4,0,4.1-0.6,5.3-1.7c1.2-1.2,1.7-2.9,1.7-5.2c0-2.3-0.6-4.1-1.7-5.2c-1.2-1.2-2.9-1.7-5.3-1.7h-3.1v13.9H71.8z"/>
		</g>
		<g>
			<path id="f" class="st0" d="M90.1,101.1c-0.3,0-0.5-0.2-0.5-0.5v-23c0-0.3,0.2-0.5,0.5-0.5h5.3c0.3,0,0.5,0.2,0.5,0.5v23
				c0,0.3-0.2,0.5-0.5,0.5H90.1z"/>
		</g>
	</g>
</g>
<rect x="38.7" y="6.8" class="st1" width="275.4" height="34.4"/>
<text transform="matrix(1 0 0 1 38.7368 16.8434)" class="st2 st3">ESPORTS </text>
<text transform="matrix(1 0 0 1 105.6011 16.5965)" class="st4 st3">GAMES.GG</text>
<g>
	
		<rect x="13.8" y="3.8" transform="matrix(0.7071 -0.7071 0.7071 0.7071 -2.1061 19.2182)" class="st5" width="16.8" height="16.8"/>
	<g>
		<g>
			<path d="M18.1,7.8h3.4v0.9h-2.1v0.6h2v0.8h-2v0.8h2.2v0.9h-3.4V7.8z"/>
			<path d="M24.2,10.4V9.5h1.9v1.7c-0.4,0.3-0.7,0.4-1,0.5c-0.3,0.1-0.6,0.1-1,0.1c-0.5,0-0.9-0.1-1.2-0.2c-0.3-0.2-0.5-0.4-0.7-0.7
				c-0.2-0.3-0.3-0.7-0.3-1.1c0-0.4,0.1-0.8,0.3-1.2c0.2-0.3,0.5-0.6,0.8-0.7c0.3-0.1,0.6-0.2,1.1-0.2c0.4,0,0.8,0,1,0.1
				c0.2,0.1,0.4,0.2,0.6,0.4c0.1,0.2,0.3,0.4,0.3,0.6l-1.2,0.2c0-0.2-0.1-0.3-0.3-0.4c-0.1-0.1-0.3-0.1-0.5-0.1
				c-0.3,0-0.5,0.1-0.7,0.3c-0.2,0.2-0.2,0.5-0.2,0.9c0,0.4,0.1,0.8,0.2,0.9c0.2,0.2,0.4,0.3,0.7,0.3c0.1,0,0.3,0,0.4-0.1
				c0.1,0,0.3-0.1,0.4-0.2v-0.4H24.2z"/>
		</g>
		<g>
			<path d="M19.9,15.1v-0.8h1.9v1.7c-0.4,0.3-0.7,0.4-1,0.5c-0.3,0.1-0.6,0.1-1,0.1c-0.5,0-0.9-0.1-1.2-0.2
				c-0.3-0.2-0.5-0.4-0.7-0.7c-0.2-0.3-0.3-0.7-0.3-1.1c0-0.4,0.1-0.8,0.3-1.2c0.2-0.3,0.5-0.6,0.8-0.7c0.3-0.1,0.6-0.2,1.1-0.2
				c0.4,0,0.8,0,1,0.1c0.2,0.1,0.4,0.2,0.6,0.4c0.1,0.2,0.3,0.4,0.3,0.6l-1.2,0.2c0-0.2-0.1-0.3-0.3-0.4c-0.1-0.1-0.3-0.1-0.5-0.1
				c-0.3,0-0.5,0.1-0.7,0.3c-0.2,0.2-0.2,0.5-0.2,0.9c0,0.4,0.1,0.8,0.2,0.9c0.2,0.2,0.4,0.3,0.7,0.3c0.1,0,0.3,0,0.4-0.1
				c0.1,0,0.3-0.1,0.4-0.2v-0.4H19.9z"/>
			<path d="M23.5,15.1v0.4c0.2,0.1,0.3,0.2,0.4,0.2c0.1,0,0.3,0.1,0.4,0.1c0.3,0,0.5-0.1,0.7-0.3c0.2-0.2,0.2-0.5,0.2-0.9
				c0-0.4-0.1-0.7-0.2-0.9c-0.2-0.2-0.4-0.3-0.7-0.3c-0.2,0-0.3,0-0.5,0.1c-0.1,0.1-0.2,0.2-0.3,0.4l-1.2-0.2
				c0.1-0.3,0.2-0.5,0.3-0.6c0.1-0.2,0.3-0.3,0.6-0.4c0.2-0.1,0.6-0.1,1-0.1c0.5,0,0.8,0.1,1.1,0.2c0.4,0.2,0.6,0.4,0.8,0.7
				c0.2,0.3,0.3,0.7,0.3,1.2c0,0.4-0.1,0.8-0.3,1.1c-0.2,0.3-0.4,0.6-0.7,0.7c-0.3,0.2-0.7,0.2-1.2,0.2c-0.4,0-0.7,0-1-0.1
				c-0.3-0.1-0.6-0.3-1-0.5l0-1.7l1.9,0v0.8H23.5z"/>
		</g>
	</g>
</g>
</svg>
