<?xml version="1.0" encoding="utf-8"?>
<!-- Generator: Adobe Illustrator 25.2.3, SVG Export Plug-In . SVG Version: 6.00 Build 0)  -->
<!DOCTYPE svg PUBLIC "-//W3C//DTD SVG 1.1//EN" "http://www.w3.org/Graphics/SVG/1.1/DTD/svg11.dtd" [
	<!ENTITY ns_extend "http://ns.adobe.com/Extensibility/1.0/">
	<!ENTITY ns_ai "http://ns.adobe.com/AdobeIllustrator/10.0/">
	<!ENTITY ns_graphs "http://ns.adobe.com/Graphs/1.0/">
	<!ENTITY ns_vars "http://ns.adobe.com/Variables/1.0/">
	<!ENTITY ns_imrep "http://ns.adobe.com/ImageReplacement/1.0/">
	<!ENTITY ns_sfw "http://ns.adobe.com/SaveForWeb/1.0/">
	<!ENTITY ns_custom "http://ns.adobe.com/GenericCustomNamespace/1.0/">
	<!ENTITY ns_adobe_xpath "http://ns.adobe.com/XPath/1.0/">
]>
<svg version="1.1"
	 id="Vrstva_1" xmlns:x="&ns_extend;" xmlns:i="&ns_ai;" xmlns:graph="&ns_graphs;" xmlns:figma="http://www.figma.com/figma/ns"
	 xmlns="http://www.w3.org/2000/svg" xmlns:xlink="http://www.w3.org/1999/xlink" x="0px" y="0px" width="109px" height="110.9px"
	 viewBox="0 0 109 110.9" style="enable-background:new 0 0 109 110.9;" xml:space="preserve">
<style type="text/css">
	.st0{fill:#DBBF19;}
</style>
<metadata>
	<sfw  xmlns="&ns_sfw;">
		<slices></slices>
		<sliceSourceBounds  bottomLeftOrigin="true" height="104.5" width="104.5" x="2.3" y="-40.2"></sliceSourceBounds>
	</sfw>
</metadata>
<g>
	
		<rect x="17.6" y="19.6" transform="matrix(0.7071 -0.7071 0.7071 0.7071 -24.0147 55.0965)" class="st0" width="73.9" height="73.9"/>
	<g>
		<g>
			<path d="M36.7,37.2h14.8v3.8h-9.3v2.8h8.6v3.6h-8.6v3.5h9.5v4.1H36.7V37.2z"/>
			<path d="M63.8,48.7v-3.7h8.5v7.6c-1.6,1.1-3.1,1.9-4.3,2.3c-1.3,0.4-2.7,0.6-4.5,0.6c-2.1,0-3.9-0.4-5.2-1.1
				c-1.3-0.7-2.4-1.8-3.1-3.2c-0.7-1.4-1.1-3.1-1.1-4.9c0-2,0.4-3.7,1.2-5.1c0.8-1.4,2-2.5,3.5-3.3c1.2-0.6,2.8-0.9,4.9-0.9
				c2,0,3.5,0.2,4.4,0.5c1,0.4,1.8,0.9,2.4,1.7c0.6,0.8,1.1,1.7,1.5,2.9l-5.3,1c-0.2-0.7-0.6-1.2-1.1-1.6c-0.5-0.4-1.2-0.5-2-0.5
				c-1.2,0-2.2,0.4-2.9,1.3c-0.7,0.8-1.1,2.2-1.1,4c0,1.9,0.4,3.3,1.1,4.2c0.7,0.8,1.7,1.2,3,1.2c0.6,0,1.2-0.1,1.8-0.3
				c0.6-0.2,1.2-0.5,1.9-0.9v-1.7H63.8z"/>
		</g>
		<g>
			<path d="M44.7,69.3v-3.7h8.5v7.6c-1.6,1.1-3.1,1.9-4.3,2.3c-1.3,0.4-2.7,0.6-4.5,0.6c-2.1,0-3.9-0.4-5.2-1.1
				c-1.3-0.7-2.4-1.8-3.1-3.2c-0.7-1.4-1.1-3.1-1.1-4.9c0-2,0.4-3.7,1.2-5.1c0.8-1.4,2-2.5,3.5-3.3c1.2-0.6,2.8-0.9,4.9-0.9
				c2,0,3.5,0.2,4.4,0.5c1,0.4,1.8,0.9,2.4,1.7c0.6,0.8,1.1,1.7,1.5,2.9l-5.3,1c-0.2-0.7-0.6-1.2-1.1-1.6c-0.5-0.4-1.2-0.5-2-0.5
				c-1.2,0-2.2,0.4-2.9,1.3c-0.7,0.8-1.1,2.2-1.1,4c0,1.9,0.4,3.3,1.1,4.2c0.7,0.8,1.7,1.2,3,1.2c0.6,0,1.2-0.1,1.8-0.3
				c0.6-0.2,1.2-0.5,1.9-0.9v-1.7H44.7z"/>
			<path d="M60.6,69.3V71c0.7,0.4,1.4,0.7,1.9,0.9c0.6,0.2,1.2,0.3,1.8,0.3c1.3,0,2.3-0.4,3-1.2c0.7-0.8,1.1-2.2,1.1-4.2
				c0-1.8-0.4-3.2-1.1-4c-0.7-0.8-1.7-1.3-2.9-1.3c-0.8,0-1.5,0.2-2,0.5c-0.5,0.4-0.9,0.9-1.1,1.6l-5.3-1c0.3-1.2,0.8-2.1,1.5-2.9
				c0.6-0.8,1.5-1.3,2.4-1.7c1-0.4,2.5-0.5,4.4-0.5c2.1,0,3.7,0.3,4.9,0.9c1.6,0.7,2.7,1.8,3.5,3.3c0.8,1.4,1.2,3.1,1.2,5.1
				c0,1.9-0.4,3.5-1.1,4.9c-0.7,1.4-1.8,2.5-3.1,3.2c-1.3,0.7-3.1,1.1-5.2,1.1c-1.7,0-3.2-0.2-4.5-0.6c-1.3-0.4-2.7-1.2-4.3-2.3
				l0-7.6l8.5,0v3.7H60.6z"/>
		</g>
	</g>
</g>
</svg>
