<?xml version="1.0" encoding="utf-8"?>
<!-- Generator: Adobe Illustrator 25.2.3, SVG Export Plug-In . SVG Version: 6.00 Build 0)  -->
<!DOCTYPE svg PUBLIC "-//W3C//DTD SVG 1.1//EN" "http://www.w3.org/Graphics/SVG/1.1/DTD/svg11.dtd" [
	<!ENTITY ns_extend "http://ns.adobe.com/Extensibility/1.0/">
	<!ENTITY ns_ai "http://ns.adobe.com/AdobeIllustrator/10.0/">
	<!ENTITY ns_graphs "http://ns.adobe.com/Graphs/1.0/">
	<!ENTITY ns_vars "http://ns.adobe.com/Variables/1.0/">
	<!ENTITY ns_imrep "http://ns.adobe.com/ImageReplacement/1.0/">
	<!ENTITY ns_sfw "http://ns.adobe.com/SaveForWeb/1.0/">
	<!ENTITY ns_custom "http://ns.adobe.com/GenericCustomNamespace/1.0/">
	<!ENTITY ns_adobe_xpath "http://ns.adobe.com/XPath/1.0/">
]>
<svg version="1.1"
	 id="Vrstva_1" xmlns:x="&ns_extend;" xmlns:i="&ns_ai;" xmlns:graph="&ns_graphs;" xmlns:figma="http://www.figma.com/figma/ns"
	 xmlns="http://www.w3.org/2000/svg" xmlns:xlink="http://www.w3.org/1999/xlink" x="0px" y="0px" width="109px" height="24px"
	 viewBox="0 0 109 24" style="enable-background:new 0 0 109 24;" xml:space="preserve">
<style type="text/css">
	.st0{fill:#FF4400;}
</style>
<metadata>
	<sfw  xmlns="&ns_sfw;">
		<slices></slices>
		<sliceSourceBounds  bottomLeftOrigin="true" height="24" width="108.7" x="0" y="0"></sliceSourceBounds>
	</sfw>
</metadata>
<g transform="translate(-1470)" figma:type="canvas">
	<g transform="translate(1470)" figma:type="vector">
		<g>
			<path id="b" class="st0" d="M22.7,23.2c0.3,0.3,0.1,0.8-0.4,0.8h-5.9c-0.3,0-0.6-0.1-0.7-0.3L6.3,13.1v10.4
				c0,0.3-0.2,0.5-0.5,0.5H0.5C0.2,24,0,23.8,0,23.5v-23C0,0.2,0.2,0,0.5,0h5.3c0.3,0,0.5,0.2,0.5,0.5v9.8l9.1-10
				C15.6,0.1,15.9,0,16.2,0h5.8c0.4,0,0.7,0.5,0.4,0.8l-9.9,10.6L22.7,23.2L22.7,23.2z"/>
		</g>
		<g>
			<path id="c" class="st0" d="M46,24c-0.2,0-0.4-0.1-0.5-0.3l-2-4.7H32.8l-2,4.7c-0.1,0.2-0.3,0.3-0.5,0.3h-5.2
				c-0.4,0-0.6-0.4-0.5-0.7l10.8-23C35.6,0.1,35.7,0,35.9,0h4.4c0.2,0,0.4,0.1,0.5,0.3l10.8,23c0.2,0.3-0.1,0.7-0.5,0.7
				C51.1,24,46,24,46,24z M34.9,14.3h6.6l-3.3-7.7L34.9,14.3L34.9,14.3z"/>
		</g>
		<g>
			<path id="d" class="st0" d="M55.5,24c-0.3,0-0.5-0.2-0.5-0.5v-23C55,0.2,55.2,0,55.5,0h5.3c0.3,0,0.5,0.2,0.5,0.5v18.4h9.8
				c0.3,0,0.5,0.2,0.5,0.5v4.1c0,0.3-0.2,0.5-0.5,0.5H55.5z"/>
		</g>
		<g>
			<path id="e" class="st0" d="M75.3,0.5c0-0.3,0.2-0.5,0.5-0.5h9.3c2.7,0,5,0.5,6.9,1.4c1.9,1,3.4,2.3,4.4,4.2
				c1,1.8,1.5,3.9,1.5,6.4c0,2.5-0.5,4.7-1.5,6.5c-1,1.8-2.5,3.2-4.4,4.1c-1.9,1-4.2,1.4-6.9,1.4h-9.3c-0.3,0-0.5-0.2-0.5-0.5V0.5z
				 M84.6,19c2.4,0,4.1-0.6,5.3-1.7s1.7-2.9,1.7-5.2c0-2.3-0.6-4.1-1.7-5.2C88.8,5.6,87,5,84.6,5h-3.1V19H84.6z"/>
		</g>
		<g>
			<path id="f" class="st0" d="M102.9,24c-0.3,0-0.5-0.2-0.5-0.5v-23c0-0.3,0.2-0.5,0.5-0.5h5.3c0.3,0,0.5,0.2,0.5,0.5v23
				c0,0.3-0.2,0.5-0.5,0.5H102.9z"/>
		</g>
	</g>
</g>
</svg>
